<svg width="200" height="200" viewBox="0 0 200 200" fill="none" xmlns="http://www.w3.org/2000/svg">
  <path d="M100 40C77.91 40 60 57.91 60 80C60 91.05 64.95 101.05 72.95 107.5C64.95 113.95 60 123.95 60 135C60 142.65 62.35 149.85 66.5 155.85C62.35 161.85 60 169.05 60 176.7C60 198.79 77.91 216.7 100 216.7C122.09 216.7 140 198.79 140 176.7C140 169.05 137.65 161.85 133.5 155.85C137.65 149.85 140 142.65 140 135C140 123.95 135.05 113.95 127.05 107.5C135.05 101.05 140 91.05 140 80C140 57.91 122.09 40 100 40Z" fill="#1A1A1A"/>
  <circle cx="100" cy="80" r="30" fill="none" stroke="#1A1A1A" stroke-width="4"/>
  <path d="M70 130C70 115.67 81.67 104 96 104H104C118.33 104 130 115.67 130 130" fill="none" stroke="#1A1A1A" stroke-width="4"/>
  <path d="M75 165C75 153.95 83.95 145 95 145H105C116.05 145 125 153.95 125 165" fill="none" stroke="#1A1A1A" stroke-width="4"/>
</svg>
